<svg version="1.2" xmlns="http://www.w3.org/2000/svg" viewBox="0 0 4096 2160" width="4096" height="2160">
	<title>New Project</title>
	<style>
		.s0 { opacity: .5;fill: #10b9af } 
	</style>
	<path id="Path 0" fill-rule="evenodd" class="s0" d="m1256 0c3.9 0 4 0.1 4.5 3.8 0.3 2 10.8 61.6 23.3 132.4 12.5 70.8 23.2 129.1 23.7 129.6 0.5 0.5 131.3 48.3 290.5 106.2 238.1 86.6 289.8 105.1 291.3 104.1 0.9-0.6 106.9-89.4 235.4-197.2 128.6-107.9 234.5-196.9 235.4-197.8 1.5-1.5 1.1-4.6-5.2-39.6-3.7-20.9-6.8-38.8-6.8-39.7-0.1-1.4 0.7-1.8 7.4-1.8l7.3 41.7c4.4 24.8 7 42 6.4 42.3-0.5 0.3-108.4 90.7-239.7 201-158.6 133.2-239.4 200.5-240.9 200.5-1.1-0.1-133.7-47.9-294.6-106.4-160.9-58.5-292.9-106.6-293.3-107-0.4-0.3-11.5-61.3-24.7-135.6-13.2-74.2-24-135.3-24-135.8 0-0.4 1.8-0.7 4-0.7zm-1187 588.4c1.4 0.3 134.1 48.4 295 106.9 263.1 95.7 292.6 106.7 293.3 108.8 0.4 1.3 25.1 140.6 54.8 309.4 32.1 182.2 53.7 307.2 53.1 307.5-0.5 0.3-108.4 90.7-239.6 201-131.3 110.3-239.3 200.7-239.9 200.9-0.7 0.2-65.2-23-285.7-103.4l0.1-8 141.7 51.4c128.9 46.7 141.9 51.2 143.8 50 1.2-0.8 107.8-90.2 471.9-395.9l-0.9-5.7c-0.5-3.2-24.6-140-53.5-304-28.9-164-53.1-298.6-53.6-299.1-0.5-0.5-130.6-48.1-289-105.8-158.4-57.6-288.9-104.9-290-105.1-1.5-0.3-10.9 7-34.6 26.9-17.9 15-33.3 28-34.3 28.8-1.6 1.4-1.7 1.1-1.6-9l33.3-28c27.9-23.6 33.6-27.9 35.7-27.6zm-50.3-588.4h7.8l42.5 240.7c23.4 132.3 43 241.2 43.5 241.9 0.5 0.6 131.3 48.6 290.5 106.4 238.1 86.6 289.8 105.1 291.3 104.1 0.9-0.6 106.9-89.4 235.4-197.2 128.6-107.9 234.5-196.9 235.4-197.8 1.5-1.5-0.4-13.1-50.7-297.6l3.6-0.3c1.9-0.1 3.8 0.1 4.1 0.5 0.3 0.4 12.4 68.1 26.8 150.3 15.5 88.2 25.9 149.7 25.3 150-0.5 0.3-108.4 90.7-239.7 201-158.6 133.2-239.4 200.5-240.9 200.5-1.1-0.1-133.7-47.9-294.6-106.4-160.9-58.5-292.9-106.6-293.3-107-0.4-0.3-19.9-108.6-43.2-240.6-23.4-132-42.8-241.9-43.1-244.2zm58.7 0.5l39 220.2c21.5 121.1 39.4 220.3 39.8 220.3 0.4 0 118.8 42.8 263 95.1 144.2 52.4 263.2 95.4 264.3 95.6 1.4 0.3 58.1-46.7 217.5-180.3 177.7-149 215.4-181 215.1-182.8-0.1-1.2-10.8-61.9-23.7-134.9-12.9-73-23.4-133-23.4-133.2 0-0.3 1.8-0.5 4-0.5 2.2 0 4 0.3 4 0.7 0 0.4 10.8 62.2 24.1 137.3 14.3 81 23.7 136.7 23.1 137-0.5 0.2-99 82.6-218.7 183-119.7 100.3-218.2 182.6-218.9 182.7-0.6 0.2-121.8-43.5-269.3-97-147.4-53.5-268.3-97.5-268.6-97.7-0.3-0.3-18.1-100.1-39.6-221.8-21.5-121.7-39.1-222-39.1-222.8 0.1-1.2 1-1.5 7.4-0.9zm47.5-0.5c2.2 0 4.1 0.1 4.1 0.2 0 0.1 15.6 88.7 34.7 196.9 19.1 108.1 35 196.8 35.3 197.1 0.2 0.3 107.9 39.5 478 173.8l14.7-12.4c8.1-6.7 95.5-79.9 194.3-162.6 98.7-82.7 179.8-150.6 180.2-150.9 0.4-0.4-8.9-54.9-41.9-241.6l3.6-0.3c1.9-0.2 3.8 0 4.1 0.3 0.2 0.4 10 54.7 21.7 120.8 11.7 66.1 21.2 120.9 21.2 121.9 0 1.1-72.3 62.4-197.7 167.4-108.8 91.2-198.4 165.7-199.2 165.7-0.9 0-110.4-39.6-243.5-87.9-133.1-48.3-242.2-87.8-242.3-87.9-0.1 0-16-88.9-35.2-197.5-19.3-108.7-35.3-198.8-35.6-200.3-0.6-2.7-0.5-2.7 3.5-2.7zm1185.6-0.1l1.6 8.3c0.9 4.5 9.9 54.9 38.4 215.5l4.5 1.5c2.4 0.8 121.5 43.9 264.5 95.7 213.5 77.5 260.3 94.1 261.7 93.2 1-0.6 97.7-81.6 215-179.9 117.2-98.3 213.7-179.2 214.3-179.7 0.9-0.8 0.1-7-3-24.5-2.3-13-4.5-25-4.9-26.8-0.6-3.2-0.6-3.2 3.4-3.2 2.9 0 4.1 0.4 4.4 1.7 0.2 1 2.5 13.9 5.1 28.8 2.8 16.2 4.3 27.1 3.7 27.5-0.5 0.2-99 82.6-218.7 183-119.7 100.3-218.2 182.6-218.9 182.7-0.6 0.2-121.8-43.5-269.3-97-147.4-53.5-268.3-97.5-268.6-97.7-0.3-0.3-9.4-50.7-20.2-112-10.8-61.4-20-112.8-20.3-114.3-0.5-2.6-0.4-2.8 7.3-2.8zm51.9 0.6l15.5 88.1c8.6 48.5 15.8 88.3 16.1 88.6 0.2 0.3 107.9 39.5 478 173.8l14.7-12.4c8.1-6.7 95.5-79.9 194.3-162.6 98.7-82.7 179.8-150.6 180.2-150.9 0.4-0.4-0.2-5.6-1.2-11.6-1.1-6.1-2-11.6-2-12.3 0-0.8 1.4-1.3 7.5-1.3l5 27.1-2.5 2.3c-1.4 1.3-90.5 76.1-198 166.2-107.6 90.1-196.2 163.8-197 163.8-0.9 0-110.4-39.6-243.5-87.9-133.1-48.3-242.2-87.8-242.3-87.9-0.1 0-7.4-40.5-16.2-90-8.8-49.5-16-90.9-16-91.9 0.1-1.4 0.8-1.7 7.4-1.1zm-113.4 377.9c1.3 0.3 134.1 48.4 295 106.9 263.1 95.7 292.5 106.6 293.2 108.8 0.4 1.3 25.1 140.5 54.9 309.4 32.1 182.1 53.7 307.2 53.1 307.5-0.6 0.2-108.4 90.7-239.7 201-195 163.7-239.3 200.4-241.4 200.3-1.5-0.1-134.3-48.1-295.1-106.7-224.5-81.6-292.7-106.8-293.2-108.3-0.4-1-25.2-140.1-109.3-616.2l2.5-2c1.3-1.1 109.3-91.8 240-201.6 202.6-170.3 237.8-199.5 240-199.1zm-472.7 404.9c-0.8 0.9 12.2 76.6 52.5 304.8 29.5 167.1 54.1 304.2 54.7 304.7 0.5 0.5 131.2 48.3 290.5 106.2 264 96 289.6 105.1 291.6 103.8 1.1-0.7 107.8-90.1 237-198.6l234.9-197.2c-1.4-9-25.5-145.7-54.4-309.7-29-164-53.1-298.6-53.6-299.2-0.6-0.5-130.6-48.1-289-105.7-158.4-57.6-288.9-105-290-105.2-1.5-0.3-62.9 50.7-237.5 197.3-129.6 108.7-236.1 198.1-236.7 198.8zm-697.8-147.3c0.5-0.1 121.6 43.7 269.1 97.2 147.4 53.5 268.3 97.5 268.6 97.8 0.3 0.2 22.9 127.1 50.2 282 29.6 167.3 49.4 281.7 48.8 282-0.5 0.2-99 82.6-218.7 183-119.7 100.3-218.2 182.6-218.9 182.8-0.6 0.2-63.4-22.3-277.7-100.3v-3.8c0-3 0.4-3.7 1.8-3.4 1 0.2 63 22.5 137.8 49.6 74.8 27.1 136.4 49 137 48.8 0.5-0.3 97.7-81.6 216-180.7 177.2-148.6 214.9-180.6 214.6-182.4-0.1-1.2-22.1-125.7-48.8-276.6-26.7-151-48.8-274.9-49.2-275.2-0.3-0.4-118.8-43.6-263.1-95.9-144.4-52.4-263.4-95.5-264.5-95.7-1.5-0.3-12.6 8.4-41 32.3-21.5 18-39.4 32.9-39.8 33.1-0.4 0.2-0.7-1.9-0.7-9.6l38.7-32.5c21.3-17.9 39.2-32.5 39.8-32.5zm12.5 43.4c1.3 0.3 110.9 39.8 243.5 88 132.5 48.1 241.2 87.9 241.5 88.3 0.4 0.4 20.7 114.6 45.3 253.8 24.6 139.1 44.7 253.5 44.7 254.2 0 0.7-88.8 75.6-197.2 166.5-108.5 90.9-197.7 165.6-198.3 165.9-0.6 0.4-61.6-21.2-270-96.9l-0.3-4.1c-0.1-2.3-0.1-4.2 0-4.2 0.1 0 60.4 21.8 267.8 97.1l20.7-17.4c11.4-9.5 99.1-82.9 194.8-163.1 154.8-129.7 173.9-146.1 173.7-148.4-0.1-1.5-19.9-114.1-87.7-498l-238.5-86.7c-131.2-47.7-239.2-86.5-240-86.2-0.9 0.3-21.5 17.2-45.8 37.6-24.3 20.5-44.5 37.2-44.7 37.2-0.3 0-0.4-2.3 0-9.9l44-37.1c36.8-31 44.4-36.9 46.5-36.6zm1167.5-253.4c0.5-0.1 121.6 43.7 269.1 97.2 147.4 53.5 268.3 97.5 268.6 97.8 0.3 0.2 22.9 127.1 50.2 282 29.6 167.3 49.4 281.7 48.8 282-0.5 0.2-99 82.6-218.7 183-119.7 100.3-218.2 182.6-218.9 182.7-0.6 0.2-121.8-43.5-269.3-97-147.4-53.5-268.3-97.5-268.6-97.7-0.3-0.3-22.9-127.1-100.2-562.9l2.5-2c1.3-1.1 99.9-83.7 219-183.5 119-99.9 216.9-181.6 217.5-181.6zm-429.9 371.8c0.1 0.9 22.2 125.7 49 277.4 26.9 151.7 49.2 275.8 49.6 275.8 0.4 0 118.8 42.8 263 95.1 144.2 52.4 263.2 95.4 264.3 95.6 1.4 0.3 58.1-46.7 217.5-180.3 177.7-149 215.4-181 215.1-182.8-0.1-1.2-22.1-125.7-48.8-276.6-26.7-151-48.8-274.9-49.2-275.2-0.3-0.4-118.8-43.6-263.1-95.9-144.4-52.4-263.4-95.5-264.5-95.7-1.5-0.3-58.1 46.6-217.5 180.3-139.6 117-215.5 181.2-215.4 182.3zm442.4-328.4c1.3 0.3 110.9 39.8 243.5 88 132.5 48.1 241.2 87.9 241.5 88.3 0.4 0.4 20.7 114.6 45.3 253.8 24.6 139.1 44.7 253.5 44.7 254.2 0 0.7-89 75.8-197.8 166.9-108.8 91.2-198.4 165.7-199.2 165.7-0.9 0-110.4-39.6-243.5-87.9-133.1-48.3-242.2-87.8-242.3-87.9-0.1 0-20.6-114.7-90.7-509.4l2.5-2c1.3-1.1 90.4-75.8 198-166 165.6-139 195.8-164 198-163.7zm-389.3 336.8c0.1 1.2 19.9 113.7 44 249.9 24.1 136.2 44 247.8 44.3 248.1 0.2 0.3 107.9 39.5 239.2 87.1l238.8 86.7c32.1-26.9 119.8-100.3 215.5-180.5 154.8-129.7 173.9-146.1 173.7-148.4-0.1-1.5-19.9-114.1-44-250.3l-43.7-247.7c-368.2-133.7-475.9-172.7-477-172.9-1.5-0.2-54.6 43.7-196.5 162.7-162.5 136.1-194.5 163.4-194.3 165.3z"/>
</svg>