<svg version="1.2" xmlns="http://www.w3.org/2000/svg" viewBox="0 0 4096 2160" width="4096" height="2160">
	<title>New Project</title>
	<style>
		.s0 { fill: #10b9af } 
		.s1 { fill: #96f4ac } 
		.s2 { fill: #93f3aa } 
		.s3 { fill: #8ff1a9 } 
		.s4 { fill: #8cf0a8 } 
		.s5 { fill: #89efa7 } 
		.s6 { fill: #88eea6 } 
		.s7 { fill: #85eda6 } 
		.s8 { fill: #84eca5 } 
		.s9 { fill: #82eba4 } 
		.s10 { fill: #7ee9a3 } 
		.s11 { fill: #7ce8a2 } 
		.s12 { fill: #7ae7a1 } 
		.s13 { fill: #77e6a0 } 
		.s14 { fill: #73e49f } 
		.s15 { fill: #72e39e } 
		.s16 { fill: #6ee29d } 
		.s17 { fill: #6ce19c } 
		.s18 { fill: #69df9b } 
		.s19 { fill: #67de9a } 
		.s20 { fill: #64dd99 } 
		.s21 { fill: #5fdb98 } 
		.s22 { fill: #5dda97 } 
		.s23 { fill: #5ad996 } 
		.s24 { fill: #59d795 } 
		.s25 { fill: #56d694 } 
		.s26 { fill: #54d693 } 
		.s27 { fill: #51d492 } 
		.s28 { fill: #4ed392 } 
		.s29 { fill: #4ad190 } 
		.s30 { fill: #48d08f } 
		.s31 { fill: #46cf8e } 
		.s32 { fill: #41cc8c } 
		.s33 { fill: #3dcb8b } 
		.s34 { fill: #3aca8a } 
		.s35 { fill: #38c889 } 
		.s36 { fill: #35c788 } 
		.s37 { fill: #32c687 } 
		.s38 { fill: #2dc385 } 
		.s39 { fill: #29c284 } 
		.s40 { fill: #27c083 } 
		.s41 { fill: #25bf82 } 
		.s42 { fill: #21be81 } 
		.s43 { fill: #1ebc80 } 
		.s44 { fill: #1bbb7f } 
		.s45 { fill: #19ba7e } 
		.s46 { fill: #16b97d } 
		.s47 { fill: #14b77c } 
		.s48 { fill: #11b67b } 
		.s49 { fill: #0eb57a } 
		.s50 { fill: #0cb479 } 
		.s51 { fill: #09b278 } 
	</style>
	<g id="Shape 2">
		<path id="Path 0" class="s0" d="m2199.5 537.6c-6.1 0.2-26.8 0.8-46 1.4-19.3 0.6-47.4 1.7-62.5 2.5-15.1 0.9-38.1 2.2-51 3-12.9 0.9-37.9 2.7-55.5 4.1-17.6 1.4-42.8 3.6-56 5-13.2 1.3-33.9 3.6-46 5-12.1 1.4-28.5 3.4-36.5 4.4-8 1.1-22.8 3.1-33 4.5-10.2 1.4-29.5 4.3-43 6.6-13.5 2.2-36.4 6.3-51 9-14.6 2.7-35.5 7-46.5 9.5-11 2.5-23.8 5.3-28.5 6.2-4.7 0.9-8.6 2-8.8 2.4-0.1 0.5-0.7 0.6-1.2 0.3-0.5-0.3-1-0.2-1 0.2 0 0.5-2.6 1.4-5.7 2.2-3.2 0.7-14.1 3.7-24.3 6.6-10.2 2.9-24.6 7.1-32 9.3-7.4 2.2-23.6 7.1-36 10.7-12.4 3.7-37.8 11.4-56.5 17.2-18.7 5.7-51.1 16.1-72 23-20.9 6.9-46.8 15.6-57.5 19.3-10.7 3.8-25.1 8.8-32 11.3-6.9 2.5-20.8 7.6-31 11.5-10.2 3.8-28 10.8-39.5 15.5-11.5 4.7-28.7 11.8-38 16-9.3 4.1-26.7 12.2-38.5 18-11.8 5.8-26.9 13.6-33.5 17.3-6.6 3.7-17.8 10.5-25 15.2-7.2 4.7-16.6 11.2-21 14.6-4.4 3.3-11.9 9.9-16.6 14.6-4.7 4.7-10.6 11.4-12.9 15-2.4 3.6-5.5 9.2-6.8 12.5-2.1 5.2-2.4 7.2-2 15 0.4 8.2 0.8 9.7 4.3 16.4 2.9 5.4 6.1 9.4 11.5 14.4 4.4 4.1 12.3 9.8 19 13.7 6.3 3.8 16.2 8.8 22 11.3 5.8 2.4 15 6 20.5 8 5.5 1.9 13.6 4.6 18 6 4.4 1.4 11.2 3.5 15 4.6 3.8 1.1 17.1 4.5 29.5 7.6 12.4 3.1 32.8 8.6 45.5 12.2 12.7 3.6 29.8 8.9 38 11.8 8.3 2.9 19.7 7.1 25.5 9.4 5.8 2.3 15.2 6.7 21 9.8 5.8 3 13.2 7.4 16.5 9.6 3.3 2.2 8.8 6.8 12.1 10.1 3.7 3.6 7.2 8.3 8.8 11.6 1.4 3 2.8 7.7 3.2 10.5 0.4 3.5 0 7-1.2 11.5-1 3.6-3.6 9.2-5.8 12.5-2.1 3.3-5.7 8.2-8 10.9-2.3 2.7-8.1 8.5-13.1 12.9-5 4.3-13 10.9-18 14.6-5 3.7-14.4 10.4-21 14.8-6.6 4.4-16.5 10.8-22 14.3-5.5 3.4-17.9 10.8-27.5 16.5-9.6 5.6-26.3 15.2-37 21.2-10.7 6.1-49.4 27.3-86 47.3-36.6 19.9-79.5 43.4-95.5 52.2-16 8.9-38.2 21.3-49.5 27.6-11.3 6.3-30.9 17.4-43.5 24.7-12.6 7.3-33.4 19.3-46 26.7-12.6 7.4-38.5 22.9-57.5 34.5-19 11.5-42.1 25.7-51.5 31.5-9.4 5.8-27.8 17.8-41 26.5-13.2 8.8-28.3 19-33.5 22.8-5.2 3.7-14.2 10.7-20 15.4-5.8 4.7-15.4 13.5-21.4 19.6-6 6-13.8 14.8-17.3 19.5-3.5 4.7-8.6 13-11.3 18.5-2.7 5.5-5.7 13.2-6.6 17-1.1 5-1.5 9.9-1.1 17 0.3 7.7 1.1 11.6 3.1 17 1.5 3.8 4.7 9.9 7.1 13.5 2.3 3.6 7.1 9.5 10.6 13.1 3.5 3.6 10.7 9.7 15.9 13.6 5.2 3.9 14.7 10 21 13.7 6.3 3.6 17.8 9.3 25.5 12.7 7.7 3.4 18.7 7.9 24.5 10.1 5.8 2.2 17.3 6.1 25.5 8.8 8.3 2.6 19.7 6.2 25.5 7.8 5.8 1.7 18.6 5.1 28.5 7.6 9.9 2.4 25.2 6 34 8 8.8 1.9 24.5 5.1 35 7.1 10.5 2 28.2 5.1 39.5 7 11.3 1.9 31.3 5 44.5 6.9 13.2 1.9 33.2 4.6 44.5 6 11.3 1.4 28.2 3.5 37.5 4.6 9.3 1 31 3.3 48 4.9 17 1.7 41.8 3.9 55 5 13.2 1.1 44.5 3.4 69.5 5.1 25 1.6 58.8 3.6 75 4.5 16.2 0.8 46.2 2.2 66.5 3 20.3 0.8 50.5 1.9 67 2.5 16.5 0.5 61.3 1.5 99.5 2.1 43.5 0.7 111.7 1 182 0.6 61.9-0.3 131.2-1.1 154-1.7 22.8-0.5 65.6-1.7 95-2.5 29.4-0.9 69.9-2.2 90-3 20.1-0.8 47.5-1.9 61-2.5 13.5-0.6 37.6-1.7 53.5-2.5 15.9-0.9 49.3-2.7 74-4 24.8-1.4 62.6-3.7 84-5 21.4-1.4 55.7-3.7 76-5 20.3-1.4 51.8-3.7 70-5 18.2-1.4 49.4-3.9 69.5-5.5 20.1-1.7 58.6-5.1 85.5-7.5 26.9-2.5 60.5-5.7 74.5-7 14-1.4 36.3-3.7 49.5-5 13.2-1.4 39.5-4.3 58.5-6.5 19-2.3 50-6.3 69-9 19-2.7 45.5-6.8 59-9 13.5-2.2 35.1-6.1 48-8.5 12.9-2.5 30-5.8 38-7.4 8-1.6 23.7-5 35-7.6 11.3-2.5 32.2-7.5 46.5-11.1 14.3-3.6 37.5-9.8 51.5-13.9 14-4 37.7-11.3 52.5-16.3 14.8-4.9 36.7-12.6 48.5-17 11.8-4.4 30.1-11.7 40.5-16.2 10.4-4.5 26.4-11.7 35.5-16 9.1-4.2 23.9-11.7 33-16.5 9.1-4.8 23-12.6 31-17.3 8-4.7 17.2-10.3 20.5-12.5 3.3-2.3 6.7-4 7.5-4 0.8 0 2.8-1.2 4.5-2.7 1.7-1.5 7.9-6.2 14-10.5 6.1-4.3 15.5-11.4 21-15.8 5.5-4.4 15.6-13.1 22.5-19.2 6.9-6.1 17.1-16.1 22.7-22.1 5.6-6 14.2-15.9 19-21.9 4.9-6 12.6-16.6 17.2-23.5 4.5-6.9 12-19.9 16.5-29 5-10 10.1-22.1 12.9-30.8 2.6-7.8 5.8-19.7 7.2-26.5 1.3-6.7 2.9-17.8 3.5-24.7 0.7-8.9 0.7-16.7 0-27-0.6-8-1.8-18.3-2.6-23-0.8-4.7-3-14-4.9-20.8-1.9-6.7-5.8-17.5-8.5-24-2.8-6.4-8.1-16.9-11.8-23.2-3.6-6.3-10.7-16.9-15.7-23.5-4.9-6.6-14.4-17.4-21-24.1-6.6-6.6-16.3-15.3-21.5-19.3-5.2-4.1-13.3-9.9-18-13.1-4.7-3.2-14.1-8.7-21-12.3-6.9-3.6-16.3-8.2-21-10.2-4.7-2-13.4-5.4-19.5-7.4-6.1-2.1-16.8-5.2-24-6.9-7.2-1.7-17.7-3.8-23.5-4.6-5.8-0.9-16.3-2.1-23.5-2.7-9.5-0.7-21.9-0.7-46.5 0.2-19.7 0.7-46.5 0.9-65 0.6-17.3-0.4-41.6-1.3-54-2.2-12.4-0.8-29.9-2.2-39-3.1-9.1-0.8-25.3-2.6-36-4-10.7-1.3-27.8-3.8-38-5.5-10.2-1.7-26.2-4.5-35.5-6.4-9.3-1.8-24-5-32.5-7-8.5-2-24.5-6.1-35.5-9.2-11-3-26.7-7.8-35-10.5-8.2-2.8-22.4-7.9-31.5-11.5-9.1-3.6-24.6-10.4-34.5-15.2-9.9-4.8-22.5-11.3-28-14.6-5.5-3.2-13.8-8.4-18.5-11.5-4.7-3.1-13.4-9.8-19.5-14.7-6.1-5-14.2-12.4-18.1-16.4-3.9-4.1-9.9-11.2-13.4-15.9-3.4-4.7-8.7-13.5-11.7-19.5-3.1-6.5-6.3-15-7.8-21-1.4-5.5-2.8-14.3-3.2-19.5-0.3-5.6-0.1-13.2 0.7-18.5 0.6-5 2.3-12.8 3.6-17.5 1.4-4.7 4.3-12.5 6.4-17.5 2.2-5 6.7-13.5 10.1-19 3.3-5.5 9.1-14 12.8-19 3.7-5 10.5-13.3 15-18.5 4.5-5.2 10.3-12.6 12.8-16.5 2.6-3.9 5.9-9.7 7.3-13 1.5-3.3 3.3-8.5 4-11.5 0.8-3.4 1.1-8.6 0.7-13.5-0.2-4.4-1.4-10.5-2.6-13.5-1.1-3-4.2-8.6-6.9-12.5-2.7-3.9-7.8-9.5-11.3-12.6-3.5-3.1-9.6-7.7-13.4-10.3-3.8-2.6-11.7-7.1-17.5-10-5.8-3-14.3-7-19-8.9-4.7-2-14.6-5.6-22-8.2-7.4-2.5-20.7-6.6-29.5-9-8.8-2.4-26.6-6.7-39.5-9.4-12.9-2.8-31.6-6.4-41.5-8-9.9-1.7-28.1-4.4-40.5-6-12.4-1.7-35.3-4.4-51-6.1-15.7-1.6-37.7-3.6-49-4.4-11.3-0.9-27.9-2-37-2.6-9.1-0.6-32.2-1.7-51.5-2.6-19.9-0.8-65.2-1.6-105-1.8-38.5-0.2-74.9-0.2-81 0z"/>
		<path id="Path 1" class="s0" d="m3125.9 627.5c-0.2 0.2-4.5 0.6-9.4 0.9-4.9 0.4-10.6 0.8-12.5 1.1-1.9 0.3-6 0.7-9 1.1-3 0.3-6.4 0.7-7.5 0.9-1.1 0.1-5.2 0.8-9 1.5-3.8 0.6-7.2 1.3-7.5 1.5-0.3 0.2-2.3 0.6-4.5 0.8-2.2 0.3-10.8 2.4-19 4.7-8.3 2.3-15.4 4.6-16 5.1-0.5 0.5-1.5 0.9-2.2 0.9-0.7 0-5.5 1.6-10.6 3.6-5 2-13.5 5.4-18.7 7.6-5.2 2.2-12.2 5.3-15.5 6.8-3.3 1.5-10.5 4.6-16 6.9-5.5 2.3-10.9 4.6-12 5-1.1 0.5-6.1 2.8-11 5.1-4.9 2.3-11.7 6.1-15 8.4-3.3 2.4-8.4 7-11.4 10.2-2.9 3.2-6.4 7.9-7.6 10.4-1.3 2.5-2.8 6.5-3.5 9-0.6 2.5-1.2 7-1.2 10 0 3 0.8 8.2 1.8 11.5 0.9 3.3 2.9 8.5 4.4 11.5 1.6 3 5.5 8.6 8.8 12.5 3.2 3.9 9.2 9.5 13.3 12.6 4.1 3.2 10.1 7 13.4 8.7 3.3 1.6 9.8 4.1 14.5 5.6 4.7 1.4 12.8 3.4 18 4.5 5.2 1.1 11.5 2.2 14 2.5 2.5 0.4 5.6 0.8 7 1.1 1.4 0.2 4.5 0.6 7 0.9 2.5 0.3 7.4 0.8 11 1.2 3.6 0.3 7.8 0.8 9.5 0.9 1.6 0.2 9.5 0.7 17.5 1.2 8 0.4 30.9 0.8 51 0.8 20.1 0 43.7-0.4 52.5-0.8 8.8-0.4 18.7-1 22-1.2 3.3-0.3 9.8-0.7 14.5-1 4.7-0.3 10.7-0.8 13.5-1 2.7-0.3 6.6-0.7 8.5-1 1.9-0.3 6.2-0.7 9.5-1 3.3-0.3 9.6-1 14-1.6 4.4-0.5 11.1-1.4 15-1.9 3.8-0.5 11.3-1.6 16.5-2.4 5.2-0.9 14.2-2.4 20-3.5 5.8-1.1 14.8-2.9 20-4 5.2-1.1 15.8-3.8 23.5-6 7.7-2.2 16.9-5.1 20.5-6.4 3.6-1.3 7.4-2.8 8.5-3.2 1.1-0.4 4.7-1.9 8-3.4 3.3-1.5 8.7-4.5 12-6.6 3.3-2.1 8.7-6.1 12-9 3.3-2.9 7.9-8.1 10.2-11.6 2.3-3.5 4.7-8.6 5.4-11.4 0.7-2.9 0.9-7.5 0.6-11-0.4-3.8-1.7-8.2-3.7-12-1.8-3.7-6-9-10.8-13.8-4.2-4.3-11.8-10.5-16.7-13.8-4.9-3.4-13.4-8.3-18.8-11-5.3-2.7-14.5-6.9-20.5-9.2-5.9-2.4-15.2-5.8-20.7-7.5-5.5-1.7-17.2-4.9-26-7.1-8.8-2.2-21.9-5.2-29-6.5-7.2-1.4-16.6-3-21-3.5-4.4-0.5-10-1.2-12.5-1.5-2.5-0.3-7.7-0.8-11.5-1.1-3.9-0.3-9.5-0.8-12.5-1.1-3-0.3-21.1-0.7-40.1-0.9-19.1-0.2-34.8-0.2-35 0z"/>
		<path id="Path 2" class="s1" d="m1610.5 603.1c-9.9 1.6-23.4 4.1-30 5.4-6.6 1.4-20.5 4.1-31 6.1-10.5 1.9-27.5 5.3-38 7.6-10.5 2.2-24.8 5.5-32 7.3-7.2 1.8-17 4.4-22 5.8-5 1.4-22 6.2-38 10.7-16 4.5-32.8 9.5-37.5 11-4.7 1.6-15 4.7-23 7-8 2.3-21.3 6.2-29.5 8.7-8.3 2.4-18.8 5.7-23.5 7.3-4.7 1.6-17.5 5.6-28.5 9-11 3.4-40.7 13.1-66 21.5-25.3 8.5-60.2 20.6-77.5 26.8-17.3 6.3-44.5 16.7-60.5 23-16 6.4-39.1 16-51.5 21.5-12.4 5.5-32.2 14.8-44 20.7-11.8 5.9-26.9 13.9-33.5 17.8-6.6 3.8-16.3 9.7-21.5 13.1-5.2 3.3-13.3 8.9-18 12.5-4.7 3.5-12.3 9.8-16.9 14-4.7 4.2-11.1 11-14.4 15.1-3.3 4.1-7.3 10.2-8.8 13.5-1.6 3.3-3.4 8.5-4.1 11.5-0.9 4.3-0.9 7.2 0 13.2 0.7 4.3 2.3 9.9 3.6 12.5 1.2 2.7 3 5.1 4 5.5 0.9 0.5 1.4 0.4 1.1-0.2-0.3-0.7 42.6-1 127.8-1 88.2 0 127.9-0.3 127.2-1-0.5-0.6-1.7-1.2-2.5-1.3-0.8-0.2-2.6-0.9-4-1.7-1.4-0.7-2.6-1.3-2.8-1.2-0.1 0.1-2.3-0.8-5-1.9-2.6-1.2-5.3-2.2-6-2.3-0.6 0-1.2-0.4-1.2-0.9 0-0.4-0.3-0.6-0.8-0.5-0.4 0.1-2.2-0.4-4-1.2-1.7-0.8-3.2-1.8-3.2-2.3 0-0.4-0.5-0.5-1-0.2-0.5 0.3-1-0.1-1-0.8 0-0.6-0.2-0.9-0.5-0.5-0.3 0.5-1.4 0-2.4-1-1.1-0.9-4.1-2.8-6.8-4.2-2.6-1.4-6.1-3.7-7.8-5.2-1.6-1.6-3.2-2.8-3.5-2.8-0.3 0-3-2.4-6-5.4-3-3-6-6.1-6.6-6.8-0.6-0.7-1.4-2.3-1.7-3.6-0.4-1.2-1.2-2.2-1.7-2.2-0.5 0-0.8-0.5-0.5-1 0.3-0.5 0-1-0.5-1-0.5 0-0.9-0.3-0.8-0.8 0.1-0.4-0.4-2.7-1.1-5.2-0.8-2.5-1.3-7.6-1.2-11.5 0.2-4.5 1-8.9 2.5-12.5 1.2-3 3.7-7.6 5.4-10.3 1.8-2.6 3.2-4.8 3.2-5-0.1-0.1 1.2-1.7 2.7-3.6 1.5-1.8 4.7-5.2 7-7.5 2.3-2.2 6.1-5.8 8.5-7.9 2.4-2 6-4.9 8.1-6.5 2.1-1.5 3.7-3 3.7-3.5 0-0.4 0.7-0.7 1.5-0.7 0.8 0 1.7-0.7 2-1.5 0.3-0.8 1-1.5 1.5-1.5 0.5 0 3.8-1.9 7.2-4.2 3.5-2.3 6.4-4.5 6.5-5 0.2-0.4 1-0.8 1.8-0.8 0.8 0 1.5-0.5 1.5-1 0-0.5 1-1.2 2.2-1.5 1.3-0.2 3.2-1.2 4.3-2.2 1.1-1 3.5-2.5 5.3-3.3 1.8-0.8 3.3-1.8 3.2-2.3 0-0.4 1.1-0.9 2.5-1.2 1.4-0.3 3.1-1.1 3.7-1.8 0.7-0.6 4.1-2.6 7.6-4.2 3.4-1.6 6.2-3.3 6.2-3.8 0-0.4 0.5-0.5 1-0.2 0.5 0.3 1.1 0.2 1.2-0.3 0.2-0.4 4.8-2.9 10.3-5.6 5.5-2.8 10.3-4.9 10.7-4.8 0.5 0.1 0.8-0.3 0.8-0.8 0-0.5 0.5-0.8 1-0.5 0.5 0.3 1 0 1-0.5 0-0.5 0.5-0.8 1-0.5 0.5 0.3 1 0 1-0.5 0-0.5 0.5-0.8 1-0.5 0.5 0.3 1 0 1-0.5 0-0.5 0.5-0.8 1-0.5 0.5 0.3 1-0.1 1-0.8 0-0.6 0.3-0.9 0.7-0.5 0.5 0.4 3.4-0.6 6.5-2.2 3.2-1.7 6.1-3 6.5-3.1 0.5-0.1 2.4-0.9 4.3-1.9 1.9-1 3.7-1.8 4-1.7 0.3 0 2.5-1 5-2.3 2.5-1.3 4.6-2.2 4.7-2.1 0.2 0 1.6-0.6 3.3-1.4 1.7-0.8 3.2-1.5 3.5-1.5 0.3 0 1.8-0.7 3.5-1.5 1.7-0.8 3.2-1.5 3.5-1.5 0.3 0 1.6-0.7 3-1.5 1.4-0.8 2.5-1.3 2.5-1 0 0.3 1 0 2.2-0.7 1.3-0.7 2.5-1.3 2.8-1.3 0.3 0 5.5-2 11.5-4.4 6-2.4 11.9-4.8 13-5.4 1.1-0.6 2.2-1.2 2.5-1.2 0.3-0.1 2.3-0.7 4.5-1.4 2.2-0.8 4.9-1.8 6-2.4 1.1-0.6 2.5-1.2 3-1.3 0.5-0.1 4.8-1.6 9.5-3.4 4.7-1.7 9.1-3.7 9.8-4.3 0.7-0.7 1.3-0.9 1.2-0.5 0 0.5 2.1 0 4.7-1 2.7-1.1 5.7-2.2 6.8-2.7 1.1-0.4 2.5-0.9 3-1 0.5-0.1 5-1.7 10-3.5 5-1.8 10.1-3.7 11.5-4.2 1.4-0.5 2.5-0.8 2.6-0.6 0 0.2 0.9-0.4 1.8-1.2 0.9-0.8 1.7-1.2 1.6-0.8 0 0.5 3.7-0.6 8.2-2.2 4.6-1.7 9-3.3 9.8-3.7 0.8-0.3 2-0.7 2.5-0.8 0.5-0.1 7.5-2.4 15.5-5 8-2.6 15.1-5.3 15.8-5.9 0.8-0.6 1.3-0.7 1.2-0.1 0 0.5 0.6 0.3 1.5-0.5 0.9-0.8 1.5-1 1.5-0.5 0 0.5 0.7 0.3 1.6-0.5 0.9-0.8 1.9-1.4 2.1-1.3 0.1 0.2 0.5 0.3 0.8 0.3 0.3 0 1-0.2 1.5-0.5 0.5-0.3 1.2-0.5 1.5-0.5 0.3 0 1-0.2 1.5-0.5 0.5-0.3 1.2-0.5 1.5-0.5 0.3 0 1-0.2 1.5-0.5 0.5-0.3 1.2-0.5 1.5-0.5 0.3 0 1-0.2 1.5-0.5 0.5-0.3 1.2-0.5 1.5-0.5 0.3 0 1-0.2 1.5-0.5 0.5-0.3 1.2-0.5 1.5-0.5 0.3 0 1-0.2 1.5-0.5 0.5-0.3 1.2-0.5 1.5-0.5 0.3 0 1-0.2 1.5-0.5 0.5-0.3 1.2-0.5 1.5-0.5 0.3 0 1-0.2 1.5-0.5 0.5-0.3 1.2-0.5 1.5-0.5 0.3 0 1-0.2 1.5-0.5 0.5-0.3 1.1-0.5 1.2-0.6 0.2 0 1-0.2 1.8-0.4 0.8-0.1 4.2-1.1 7.5-2 3.3-1 6.5-2.1 7-2.5 0.5-0.5 1.3-0.9 1.7-0.9 0.5-0.1 0.9-0.1 1-0.2 0.2 0 1-0.2 1.8-0.3 0.8-0.2 4-1.1 7-2 3-1 6.2-2 7-2.3 0.8-0.4 1.7-0.7 2-0.8 0.3 0 2.1-0.5 4-0.9 1.9-0.5 4.6-1.3 6-1.9 1.4-0.5 3-1.1 3.5-1.2 0.5-0.1 2.8-0.8 5-1.4 2.2-0.7 4.7-1.5 5.5-1.8 0.8-0.4 1.7-0.7 2-0.8 0.3 0 2.1-0.5 4-0.9 1.9-0.5 4-1.1 4.5-1.4 0.5-0.4 1.5-0.7 2-0.8 0.5-0.1 5-1.4 10-3 5-1.5 9.5-2.8 10-2.9 0.5-0.1 2.8-0.8 5-1.4 2.2-0.7 4.7-1.5 5.5-1.8 0.8-0.4 1.7-0.7 2-0.8 0.3 0 2.1-0.5 4-0.9 1.9-0.5 4-1.1 4.5-1.4 0.5-0.4 1.5-0.7 2-0.8 0.5-0.1 5.3-1.3 10.5-2.8 5.2-1.5 10.2-3 11-3.3 0.8-0.3 2-0.7 2.5-0.8 0.5-0.2 3-0.8 5.5-1.5 2.5-0.6 5.1-1.7 5.8-2.3 0.7-0.7 1.3-0.9 1.2-0.5 0 0.5 1.2 0.3 2.7-0.3 1.6-0.6 3.9-1.3 5.3-1.6 1.4-0.3 3.3-1 4.3-1.7 1-0.6 1.8-0.8 1.7-0.4 0 0.5 2.8-0.1 6.2-1.2 3.5-1.2 7.4-2.3 8.8-2.6 1.4-0.2 3.2-0.7 4-1.1 0.8-0.3 2-0.7 2.5-0.9 0.5-0.2 2.1-0.5 3.5-0.8 1.4-0.3 4.9-1.1 7.8-1.8 2.9-0.7 5.2-1.6 5.2-2.1 0-0.4-0.5-0.7-1-0.7-0.5 0-1.6-0.2-2.3-0.4-0.6-0.2-9.3 0.9-19.2 2.5z"/>
		<path id="Path 3" class="s2" d="m997 930c-97.9 0.4-128.5 0.8-128.5 1.7 0 0.6 2.1 3.6 4.6 6.5 2.5 2.9 6.8 6.8 9.5 8.6 2.7 1.8 5.4 3.2 5.9 3.2 0.5 0 0.3-0.5-0.5-1-1-0.6 51.3-1 148.5-1.1 145.7-0.1 149.8-0.2 144.5-1.9-3-1-6.8-2-8.5-2.3-1.7-0.3-5.1-1.3-7.8-2.1-2.6-0.9-4.7-1.3-4.7-0.8 0.1 0.4-0.5 0.2-1.2-0.5-0.7-0.6-2.6-1.4-4.3-1.6-1.7-0.3-3.1-0.6-3.3-0.6-0.1-0.1-0.7-0.3-1.2-0.6-0.5-0.3-1.2-0.5-1.5-0.5-0.3 0-0.8-0.2-1.3-0.3-0.4-0.2-1.4-0.7-2.2-1-0.8-0.4-3.8-1.4-6.5-2.3-2.8-0.9-5.7-1.8-6.5-1.9-0.8-0.2-1.6-0.4-1.8-0.4-0.1-0.1-0.6-0.2-1.1-0.4-0.5-0.1-1.3-0.6-1.8-1-0.4-0.4-1-0.6-1.3-0.5-0.3 0.2-58.3 0.5-129 0.8z"/>
		<path id="Path 4" class="s3" d="m1036.5 948c-82.5 0.3-149.3 0.8-148.5 1.2 1.3 0.6 1.3 0.7 0 0.7-1.1 0.1-1 0.4 0.5 1.5 1.1 0.7 7 4.2 13 7.7 6 3.4 14.8 7.8 19.5 9.6 4.7 1.8 9.2 3.3 10 3.3 1.3 0 1.3-0.1 0-1-1-0.6 57.7-1 166.5-1 92.4 0 167.6-0.3 167.2-0.7-0.5-0.5-1.3-0.9-1.8-1-0.5-0.2-1.1-0.3-1.4-0.3-0.3 0-0.8-0.2-1.2-0.3-0.5-0.2-1.9-0.9-3.3-1.4-1.4-0.6-3.6-1.3-5-1.6-1.4-0.2-3.2-0.7-4-1-0.8-0.4-2.6-0.9-4-1.1-1.4-0.3-4.6-1.2-7.2-2.1-2.7-0.8-4.8-1.2-4.8-0.7 0.1 0.4-0.5 0.2-1.2-0.4-0.7-0.7-2.9-1.5-4.8-2-1.9-0.4-3.7-0.9-4-0.9-0.3-0.1-1.2-0.5-2-0.8-0.8-0.3-4.2-1.3-7.5-2.1-3.3-0.8-7.3-1.8-9-2.1-1.7-0.3-3.5-0.7-4-0.9-0.5-0.1-3-0.8-5.5-1.5-2.5-0.7-5.2-1.3-6-1.4-0.8-0.1-69 0-151.5 0.3z"/>
		<path id="Path 5" class="s4" d="m1098 970c-92.7 0.3-167.8 0.6-167 0.8 1.3 0.2 1.3 0.3 0 1.1-1 0.6 4.3 2.8 17.5 7.1 10.5 3.4 21.4 6.8 24.3 7.6 2.8 0.8 5.8 1.4 6.4 1.3 0.7 0 0.4-0.4-0.7-0.9-1.1-0.5 70.5-0.9 164-0.9 164.7-0.1 166-0.1 163-2.1-1.7-1-3.9-2.1-5-2.3-1.1-0.1-3-0.8-4.3-1.5-1.2-0.7-2.2-0.9-2.2-0.4 0.1 0.4-0.5 0.2-1.2-0.5-0.7-0.6-5-2.5-9.4-4.1-4.5-1.7-8.2-2.8-8.3-2.4 0 0.4-0.7 0-1.6-0.8-0.9-0.8-1.5-1-1.5-0.5 0 0.5-0.6 0.3-1.5-0.5-0.9-0.8-1.5-1.1-1.3-0.6 0.1 0.5-0.4 0.5-1.2 0-0.9-0.5-74.8-0.7-170-0.4z"/>
		<path id="Path 6" class="s5" d="m1143 986c-91.6 0.3-165.6 0.6-164.5 0.8 1.7 0.2 1.7 0.4 0.5 1.1-1 0.6 3.8 2.2 15.5 5 9.4 2.2 19.3 4.3 22 4.6 3.6 0.4 4.4 0.3 3-0.4-1.3-0.6 54.8-1 153.5-1h155.5c-3.9-3.2-5.3-3.8-5.8-3.6-0.4 0.3-0.8 0.1-1-0.4-0.1-0.5-2.9-2.1-6.2-3.7l-6-2.9z"/>
		<path id="Path 7" class="s6" d="m1173 996c-85.5 0.3-154.6 0.7-153.5 0.8 1.5 0.3 1.6 0.5 0.5 0.9-0.8 0.4 4.8 2.3 12.5 4.4 7.7 2.1 15.1 3.8 16.5 3.8 2.3 0 2.3-0.1 0.5-0.9-1.1-0.5 62.1-0.9 145-0.9 134.3 0 146.9-0.1 145.5-1.6-0.8-0.9-2.1-1.6-2.8-1.5-0.6 0-1.2-0.4-1.1-0.8 0.1-0.5-1.6-1.7-3.7-2.8-3.8-1.9-7.1-1.9-159.4-1.4z"/>
		<path id="Path 8" class="s7" d="m1194.5 1004c-80.8 0.3-146.1 0.6-145 0.8 1.6 0.2 1.7 0.4 0.5 1.1-1.1 0.6-0.5 1.1 2.5 1.9 2.2 0.6 9.4 2.7 16 4.6 6.6 2 12.7 3.6 13.5 3.5 1.3 0 1.3-0.1 0-0.7-0.8-0.4 59.7-0.9 134.5-1.2l136-0.5c-6.2-6-8.7-8.2-9.5-8.8-1.1-0.9-38.4-1.1-148.5-0.7z"/>
		<path id="Path 9" class="s8" d="m1351.3 1012.8c0.6 0.9-26.8 1.2-135 1.2-88.1 0-135.3 0.4-134.3 1 0.8 0.5 1.1 1 0.5 1.1-0.5 0 4.2 1.8 10.5 4 6.3 2.1 12.2 3.9 13 3.9 1.3 0 1.3-0.1 0-1-1-0.6 43.3-1 126-1.1 70.1 0 126.9-0.2 126.3-0.5-0.7-0.2-1.1-0.8-0.8-1.4 0.3-0.5-0.2-1.2-1-1.5-0.8-0.3-1.5-1.1-1.5-1.7 0.1-0.7-0.9-2.2-2.1-3.3-1.3-1.1-1.9-1.4-1.6-0.7z"/>
		<path id="Path 10" class="s9" d="m1106 1023c1.3 0.9 1.3 1 0 1-0.8 0.1 2.3 1.6 7 3.3 4.7 1.8 11 4.5 14 6 3 1.4 6.8 2.9 8.5 3.2 1.7 0.3 2.3 0.2 1.5-0.2-0.8-0.5 49.6-1 112-1.3l113.5-0.5c-0.5-4.7-1.2-6.6-1.8-7.3-0.7-0.7-0.9-1.3-0.4-1.2 0.4 0 0.2-0.9-0.3-2-1-2-2-2-128.3-2-82.5 0-126.7 0.4-125.7 1z"/>
		<path id="Path 11" class="s10" d="m1249 1035c-62.4 0.3-112.8 0.8-112 1.2 1.3 0.6 1.3 0.7 0 0.8-0.8 0 2.8 2.3 8 5 5.2 2.8 10.4 5.3 11.5 5.6 1.6 0.4 1.7 0.3 0.5-0.5-1.1-0.8 29.2-1.1 101.3-1.1 81.1 0 102.8-0.3 103.3-1.2 0.4-0.7 0.8-3.4 1-6 0.2-2.7 0.2-4.7 0.1-4.6-0.1 0.2-51.3 0.5-113.7 0.8z"/>
		<path id="Path 12" class="s11" d="m1156.8 1046.6c0.6 0.2 1 0.7 0.7 1.2-0.2 0.4 2 2.4 5 4.5 3 2 5.7 3.7 6 3.7 0.3 0 0.3-0.4 0-1-0.3-0.7 31.2-1 93.5-1 51.7 0 94.7-0.2 95.5-0.5 0.8-0.3 1.3-0.9 1-1.5-0.3-0.5 0-1 0.5-1 0.6 0 0.8-0.4 0.5-1-0.3-0.5 0-1.2 0.5-1.5 0.6-0.3 1-0.9 1-1.5 0-0.7-34.9-1-102.7-0.9-56.6 0-102.2 0.2-101.5 0.5z"/>
		<path id="Path 13" class="s12" d="m1262.8 1053.8c-62.8 0.1-94.6 0.5-94.3 1.2 0.3 0.6 0 1-0.5 1-0.5 0 1 1.8 3.5 4 2.5 2.2 4.7 4 5 4 0.3 0 0.3-0.4 0-1-0.3-0.7 29-1 87-1 48.1 0 88.2-0.2 89-0.5 0.8-0.3 1.5-1.2 1.5-2 0-0.8 0.5-1.5 1-1.5 0.5 0 1-0.7 1-1.5 0-0.8 0.6-1.7 1.3-1.9 0.6-0.2 1-0.5 0.7-0.7-0.3-0.2-43.1-0.3-95.2-0.1z"/>
		<path id="Path 14" class="s13" d="m1175.7 1062.5c-0.4 0.3 0.8 2.7 2.5 5.5l3.3 5c144.1 0 160.4 0.3 159.9 1.3-0.3 0.6 1-0.6 3-2.8 2-2.2 4.5-4.9 5.6-6 1-1.1 1.9-2.3 2-2.8 0-0.4-39.5-0.7-87.8-0.7-48.3 0-88.2 0.2-88.5 0.5z"/>
		<path id="Path 15" class="s14" d="m1182.6 1073.8c-0.3 0.4 0.2 3 1.1 5.7l1.5 5c113.4-0.4 146.5-0.9 146.8-1.3 0.3-0.4 2.2-1.9 4.3-3.5 2-1.5 4.2-3.6 4.7-4.7 1-2 0.7-2-78.5-2-43.6 0-79.6 0.3-79.9 0.8z"/>
		<path id="Path 16" class="s15" d="m1186.4 1084.8c-0.6 0.4-1.4 2.8-1.8 5.5l-0.6 4.7c134 0 135 0 136.2-2 0.7-1.1 1.9-2 2.5-2 0.7 0 1.9-0.8 2.5-1.8 0.7-1 2.1-2.1 3-2.5 1-0.4 1.8-1.2 1.8-1.7 0-0.7-24.4-1-71.3-1-39.1 0-71.7 0.4-72.3 0.8z"/>
		<path id="Path 17" class="s16" d="m1182.5 1098.6c-0.9 2-1.6 4.3-1.5 5 0 1.2 10 1.4 61.8 1.4l61.7 0.1c4.3-4 5.8-5.1 6.3-5.1 0.4-0.1 1.7-1 3-2 1.2-1.1 2.2-2.2 2.2-2.5 0-0.3-29.7-0.5-66-0.5h-66z"/>
		<path id="Path 18" class="s17" d="m1177.2 1108.7c-1.4 2.3-2.5 4.4-2.4 4.7 0.1 0.3 26.6 0.5 58.9 0.3 45.9-0.1 58.7-0.5 59-1.5 0.2-0.6 0.8-1.2 1.3-1.2 0.5 0 2.6-1 4.5-2.3 1.9-1.2 3.5-2.5 3.5-3 0-0.4-27.5-0.8-61.1-1l-61-0.2z"/>
		<path id="Path 19" class="s18" d="m1232.3 1113.7l-58.3 0.3c-3.8 5-5 6.8-5 7.2 0 0.5 24.5 0.8 54.5 0.8 50.1 0 54.7-0.1 57.5-1.8 1.7-0.9 3-2 3-2.5 0-0.4 0.6-0.7 1.3-0.7 0.6 0 2.3-0.9 3.7-2 1.4-1.1 2.3-1.9 2-1.7-0.3 0.1-26.7 0.3-58.7 0.4z"/>
		<path id="Path 20" class="s19" d="m1164.2 1125.2c-2 2.1-3.5 4-3.2 4.2 0.3 0.3 23.9 0.6 52.5 0.6 42.3 0 52.3-0.2 53.5-1.3 0.8-0.7 2.4-1.7 3.5-2 1.1-0.4 3.1-1.6 4.5-2.7 2.5-1.9 2.3-1.9-52.3-2.2l-54.8-0.3z"/>
		<path id="Path 21" class="s20" d="m1154.2 1134.5c-3.3 2.8-6.1 5.6-6.1 6.3-0.1 0.9 10.3 1.3 48.1 1.5 37.4 0.1 48.5-0.1 49.5-1 0.7-0.7 1.3-1.1 1.3-0.8 0 0.3 2.8-1.1 6.2-3.2 3.5-2 7.4-4.5 8.8-5.5 2.5-1.8 1.5-1.9-49.6-2.1l-52.2-0.2z"/>
		<path id="Path 22" class="s21" d="m1142.4 1144.2c-2.2 1.9-5.6 4.6-7.7 6.1-2 1.5-3.7 3.2-3.7 3.7 0 0.6 16 1.1 45.5 1.2 25 0.2 45.5 0 45.5-0.5 0-0.4 0.4-0.5 1-0.2 0.5 0.3 1 0 1-0.5 0-0.5 1.1-1.2 2.5-1.5 1.4-0.3 3.1-1.1 3.8-1.8 0.7-0.6 3.4-2.3 6-3.7 2.7-1.4 5.4-3.1 6-3.8 1-1.1-7.4-1.3-46.1-1.2-25.9 0-47.8-0.3-48.6-0.6-0.7-0.3-3.1 1-5.2 2.8z"/>
		<path id="Path 23" class="s22" d="m1125 1157c-2.2 1.4-3.9 3.1-4 3.8 0 0.9 9.6 1.2 44.9 1.2 38.6 0 45.2-0.2 46.5-1.5 0.9-0.8 1.6-1.2 1.6-0.7 0 0.4 0.4 0.2 0.8-0.3 0.4-0.6 2-1.7 3.7-2.5 2.8-1.4 2.3-1.5-9.5-1.7-6.9-0.2-27.7-0.4-46.3-0.5l-33.8-0.3z"/>
		<path id="Path 24" class="s23" d="m1115.1 1163.5c-1.7 1.1-3.1 2.6-3.1 3.3 0 0.9 9.5 1.3 43.5 1.5 23.9 0.1 43.5-0.1 43.5-0.5 0-0.5 0.3-0.7 0.8-0.6 0.4 0.1 2.7-0.9 5.2-2.2l4.5-2.5c-15.5-0.4-36-0.6-55.7-0.7-34.1-0.3-35.7-0.2-38.7 1.7z"/>
		<path id="Path 25" class="s24" d="m1104 1171.2c-3 2-5.6 4.1-5.8 4.7-0.1 0.8 12.8 1.2 42 1.3l42.3 0.3c7-3.8 9.2-5.1 9.5-5.5 0.3-0.3 1.8-1.2 3.5-2 2.9-1.4 2.6-1.5-6.5-1.7-5.2-0.2-25.3-0.4-44.5-0.5l-35-0.3z"/>
		<path id="Path 26" class="s25" d="m1091.8 1178.8c-2.7 1.5-4.8 3.3-4.8 4 0 0.9 9.1 1.3 41.7 1.5 27.2 0.1 42-0.2 42.7-0.8 0.6-0.6 3-1.9 5.4-3 2.3-1.1 4.2-2.3 4.2-2.7 0-0.5-18.5-0.8-41-0.8-22.5 0-41.6-0.2-42.2-0.5-0.7-0.2-3.4 0.8-6 2.3z"/>
		<path id="Path 27" class="s26" d="m1079.3 1186.3c-2.6 1.5-4.6 3.2-4.5 3.7 0.1 0.6 15 1.1 41.4 1.3 31.8 0.1 41.5-0.1 42.5-1 0.7-0.7 1.3-1 1.3-0.5 0 0.4 0.4 0.2 0.8-0.3 0.4-0.5 2.5-1.9 4.7-3l4-2c-13.9-0.4-33.2-0.6-51.8-0.7l-33.9-0.3z"/>
		<path id="Path 28" class="s27" d="m1066.6 1194c-3.3 1.9-6.1 4.1-6.2 4.8-0.3 0.9 8.2 1.2 40.1 1.2 39.4 0 40.6-0.1 44.8-2.1 2.3-1.2 4.4-2.4 4.7-2.8 0.3-0.3 1.8-1.3 3.4-2.1 2.8-1.4 2.6-1.5-6-1.7-4.9-0.2-23.8-0.4-41.9-0.5l-33.1-0.3z"/>
		<path id="Path 29" class="s28" d="m1050.1 1203.5c-3.9 2.2-7 4.6-7.1 5.3 0 0.9 8.7 1.3 39.6 1.5 22.5 0.1 40.3-0.2 41.2-0.7 0.9-0.5 2-1.4 2.4-2 0.5-0.7 0.8-0.7 0.8-0.1q0 1 0.8 0c0.4-0.5 3.4-2.3 6.7-4l6-3c-13.9-0.4-32.7-0.6-50.7-0.7l-32.7-0.3z"/>
		<path id="Path 30" class="s29" d="m1039.4 1209.7c-1.6 0.8-5.9 3.3-9.5 5.5-3.7 2.2-6.7 4.4-6.8 4.9-0.1 0.5 17.3 1 39.6 1.1 30.6 0.2 40 0 41-1 0.7-0.6 1.3-0.9 1.3-0.5 0 0.5 0.4 0.3 0.8-0.2 0.4-0.6 2.7-1.9 5.1-3 2.4-1.1 5.8-3 7.5-4.3l3.1-2.2c-62.3 0-78.6-0.4-78.8-0.9-0.2-0.5-1.7-0.3-3.3 0.6z"/>
		<path id="Path 31" class="s30" d="m1015.2 1223.4c-3 1.6-5.4 3.5-5.4 4.2 0.2 1.2 7.2 1.4 38.4 1.6 35.7 0.3 38.6 0.2 42.3-1.6 2.2-1 4.2-2.2 4.5-2.5 0.3-0.4 1.8-1.3 3.5-2.1 2.9-1.4 2.5-1.5-7.5-1.7-5.8-0.2-23.9-0.4-40.4-0.5l-29.8-0.3z"/>
		<path id="Path 32" class="s31" d="m1000.2 1231.7c-5.1 2.6-9.3 5.3-9.2 6 0 1 8.3 1.4 39.2 1.5 30.2 0.2 39.5 0 40.5-1 0.7-0.6 1.5-1.2 1.8-1.2 0.3 0 2.6-1.1 5.2-2.4 2.7-1.4 5.7-3.1 6.8-4 1.8-1.4-1.5-1.5-36.3-1.6-26.5 0-38.3-0.3-38.5-1.1-0.1-0.6-4.4 1.1-9.5 3.8z"/>
		<path id="Path 33" class="s32" d="m975.2 1245.4c-8.4 4.4-15.2 8.7-15.2 9.3 0 1 8.6 1.4 39.2 1.5 25.5 0.2 39.5-0.1 40.2-0.7 0.6-0.6 3-1.9 5.4-3 2.3-1.1 4.2-2.3 4.2-2.8 0-0.4 0.3-0.6 0.7-0.5 0.5 0.2 4.8-2 9.8-4.7l9-5c-59.7-0.4-77.3-0.9-77.6-1.4-0.3-0.5-7.4 2.8-15.7 7.3z"/>
		<path id="Path 34" class="s33" d="m953.4 1257.3c-3.4 1.7-7.2 3.9-8.5 4.8-1.3 0.9-2.2 1.9-1.9 2.2 0.3 0.4 18.5 0.6 40.5 0.7 22 0 40.2-0.3 40.5-0.8 0.3-0.4 2.3-1.6 4.5-2.5 2.2-1 5.1-2.7 6.5-3.7 2.5-1.9 2.2-2-36.2-2-24.8 0-38.9-0.4-39.1-1-0.1-0.5-3 0.5-6.3 2.3z"/>
		<path id="Path 35" class="s34" d="m933.8 1268c-4 1.9-7.1 4-7 4.7 0.2 1 8.4 1.3 39.7 1.3 34.6 0 39.9-0.2 42.8-1.6 1.7-0.9 3.4-2 3.7-2.3 0.3-0.3 2.3-1.5 4.5-2.6l4-2c-16.3-0.4-34.4-0.6-50.7-0.7l-29.8-0.3z"/>
		<path id="Path 36" class="s35" d="m917.5 1276.8c-4.9 2.6-9 5.3-9.2 6-0.2 0.9 8.2 1.2 39.7 1.2h40l17.5-9.5c-60.5-0.4-78.3-1-78.6-1.4-0.3-0.5-4.6 1.2-9.4 3.7z"/>
		<path id="Path 37" class="s36" d="m900.7 1285.9c-3.7 2-6.7 4.2-6.7 4.8 0 1 8.7 1.4 39.6 1.5l39.6 0.3 14.3-8c-61.2-0.4-79.3-0.9-79.6-1.4-0.3-0.5-3.6 0.8-7.2 2.8z"/>
		<path id="Path 38" class="s37" d="m880.7 1296.8c-7 3.7-12.7 7.3-12.7 8 0 0.9 8.8 1.2 40.5 1.2h40.5c17.2-9.7 22.4-12.8 22.6-13.2 0.2-0.5-17.2-0.8-38.6-0.8-23 0-39.1-0.4-39.3-0.9-0.2-0.5-6 2.1-13 5.7z"/>
		<path id="Path 39" class="s38" d="m854.5 1311.3c-7.1 4-13 7.8-13.2 8.5-0.2 0.9 8.4 1.2 41 1.2l41.2-0.1 24.9-14.4c-62.2-0.4-80.2-1-80.5-1.5-0.3-0.5-6.3 2.4-13.4 6.3z"/>
		<path id="Path 40" class="s39" d="m828.6 1325.6c-5 2.8-9.2 5.7-9.4 6.3-0.1 0.8 11.2 1 42.1 0.9l42.2-0.3 18.6-11c-13.6-0.4-32.6-0.6-51-0.7l-33.4-0.3z"/>
		<path id="Path 41" class="s40" d="m810.1 1335.9c-4.5 2.6-8.1 5.2-8.1 5.8 0 1 9 1.3 41.7 1.3l41.8-0.1c13.6-7.7 17.5-10 17.5-10.2 0-0.1-18.8-0.1-41.7 0-23 0.2-42.1-0.1-42.4-0.5-0.4-0.4-4.3 1.2-8.8 3.7z"/>
		<path id="Path 42" class="s41" d="m799.9 1341.8c-0.8 0.3-4.4 2.2-8 4.4-3.7 2.1-6.7 4.3-6.8 4.8-0.1 0.6 16 1 42.4 1h42.5l15.5-9c-64.7 0-83.7-0.4-83.8-0.8-0.2-0.5-1-0.7-1.8-0.4z"/>
		<path id="Path 43" class="s42" d="m774.4 1356.1c-5.4 3.2-11.2 6.4-12.7 7.1-1.5 0.7-2.8 1.9-2.7 2.6 0 0.9 9.3 1.2 43.3 1.2l43.2-0.1 23.7-14.4c-65.5-0.4-84-1-84.3-1.5-0.3-0.5-5 1.8-10.5 5.1z"/>
		<path id="Path 44" class="s0" d="m243 1360.6c-1.9 0.2-7.3 0.9-12 1.5-4.7 0.5-14.1 2.1-21 3.5-6.9 1.3-17.4 3.8-23.5 5.5-6.1 1.7-15.3 4.4-20.5 6.1-5.2 1.7-10.8 3.6-12.5 4.4-1.7 0.7-8.2 3.3-14.5 5.9-6.3 2.5-18.3 8-26.5 12.2-8.3 4.1-18.6 9.6-23 12.1-4.4 2.5-13.4 8.1-20 12.5-6.6 4.4-15.4 10.8-19.5 14.1-4.1 3.3-9.5 7.9-11.9 10.1-2.4 2.2-6.1 5.8-8.2 8-2.1 2.2-5.4 6.3-7.3 9-2 2.8-4.5 7.6-5.6 10.8-1.1 3.1-2 6.7-2 8 0 1.2 1.2 6.5 2.6 11.7 1.5 5.2 3.3 11.3 4.2 13.5 0.9 2.2 2.7 5.5 4.1 7.3 1.4 1.9 4.8 4.4 7.6 5.7 2.7 1.3 8.6 2.9 13 3.5 5.5 0.8 34.3 1.2 91.5 1.3 61.5 0.2 86.8-0.1 96-1.1 6.9-0.7 17-1.7 22.5-2.3 5.5-0.6 11.8-1.3 14-1.5 2.2-0.2 9.6-1.3 16.5-2.5 6.9-1.1 14.1-2.4 16-2.9 1.9-0.5 5.5-1.3 8-1.9 2.5-0.6 11.3-2.6 19.5-4.6 8.3-2 21.3-5.6 29-8.2 7.7-2.5 17.6-6.1 22-8 4.4-1.9 10.5-4.6 13.5-6 3-1.4 8.6-4.1 12.5-6 3.9-2 9.7-5.4 13-7.6 3.3-2.2 6.7-4.5 7.5-5.2 0.8-0.6 5.3-5 10-9.6 6-5.9 9.4-10.3 11.7-14.9q3.2-6.5 2.6-9c-0.3-1.4 0-3.6 0.7-5 1-2.1 0.9-3.4-0.6-8-1-3-3.3-7.7-5.1-10.5-1.7-2.7-5.8-7.5-9-10.6-3.2-3.1-9.2-7.6-13.3-10.1-4.1-2.4-11.1-6-15.5-8-4.4-2-12.9-5.1-19-6.9-6.1-1.7-13.9-4-17.5-5-3.6-1-10.1-2.5-14.5-3.3-4.4-0.9-12.9-2.2-19-3.1-6.1-0.9-18.4-2.3-27.5-3.2-9.1-0.8-27.5-1.6-41-1.8-13.5-0.1-26.1-0.1-28 0.1z"/>
		<path id="Path 45" class="s43" d="m749 1370.3c-5.1 2.8-9.5 5.8-9.6 6.5-0.3 0.9 8.9 1.3 43.3 1.5l43.6 0.2 18.1-11c-67.8-0.4-85.1-0.9-85.5-1.5-0.3-0.5-4.7 1.4-9.9 4.3z"/>
		<path id="Path 46" class="s44" d="m729.5 1381.6c-4.3 2.5-7.8 5-7.7 5.5 0.1 0.5 18.7 0.9 44.5 0.9l44.2 0.1c11.2-6.7 14.4-8.9 14.5-9.3 0-0.5-19.1-0.8-42.5-0.8-23.4 0-43.1-0.2-43.8-0.5-0.6-0.2-4.8 1.6-9.2 4.1z"/>
		<path id="Path 47" class="s45" d="m709.1 1393.5c-5.8 3.3-10.6 6.6-10.8 7.3-0.2 0.9 9.2 1.2 44.7 1.2h45c10.5-6.5 13.7-8.7 14-9 0.3-0.3 2.3-1.4 4.4-2.5l4-2c-18.5-0.4-39-0.6-57.4-0.7l-33.5-0.3z"/>
		<path id="Path 48" class="s46" d="m689.5 1404.9c-4.3 2.5-8 5.2-8.2 5.8-0.2 1 9.3 1.3 45 1.3l45.2 0.1 15.8-9.6c-68.8-0.4-89.1-0.9-89.4-1.4-0.4-0.4-4.2 1.3-8.4 3.8z"/>
		<path id="Path 49" class="s47" d="m666.3 1418.4c-6.5 3.8-11.7 7.3-11.5 7.8 0.1 0.4 21 0.9 46.5 1l46.2 0.3c13.2-8.4 17.2-11.1 17.5-11.4 0.3-0.3 1.8-1.3 3.4-2.1 2.8-1.4 2.5-1.5-7-1.7-5.4-0.2-26.4-0.4-46.6-0.5l-36.7-0.3z"/>
		<path id="Path 50" class="s48" d="m641.2 1433.8c-6.8 4-12.4 7.7-12.3 8.2 0.1 0.6 17.5 1.1 47.3 1.3l47.3 0.2 24-16c-25.6-0.4-46.7-0.6-63.4-0.7l-30.4-0.3z"/>
		<path id="Path 51" class="s49" d="m616.3 1449c-5.8 3.6-10.8 7.1-10.9 7.8-0.3 0.9 9.7 1.2 47.6 1.2 38.1 0 47.9 0.3 47.3 1.3-0.4 0.6 0.9 0 2.8-1.4 1.8-1.4 7.2-5.2 11.9-8.5l8.5-5.9c-20.2-0.4-41.9-0.6-61.3-0.7l-35.3-0.3z"/>
		<path id="Path 52" class="s50" d="m597.4 1460.3c-2.7 1.8-8.8 5.7-13.5 8.7l-8.4 5.5 105.5 0.5c8.1-6.5 11.2-9 12-9.7 0.8-0.7 3.1-2.6 5-4.2l3.5-3c-73.6-0.1-95.9-0.3-97-0.6-1.1-0.2-4.2 1-7.1 2.8z"/>
		<path id="Path 53" class="s51" d="m571.7 1476.4c-1.8 1.1-14.9 9.6-29.2 18.9-14.3 9.4-29.8 19.7-34.5 23-4.7 3.4-12.6 9.1-17.5 12.7-5 3.7-14 10.9-20 16.2-6.1 5.2-14.2 12.8-18 16.9-3.9 4.1-9.7 10.8-13 14.9-3.4 4.1-7.5 9.7-9.2 12.5-1.8 2.7-4.8 8.4-6.7 12.5-1.9 4.1-4 9.7-4.7 12.5-0.6 2.7-1.6 5.4-2.1 6-0.4 0.5-0.8 6.1-0.8 12.2 0 6.2 0.3 11.5 0.7 11.7 0.5 0.2 1.1 1.9 1.5 3.7 0.4 1.9 2.8 7.7 5.4 12.9 4.2 8.4 6.1 10.9 16.3 21.1 8.7 8.7 14.7 13.7 24.1 19.8 6.9 4.5 18.3 11.1 25.5 14.6 7.1 3.5 20.2 9.4 29 13 8.8 3.7 21.4 8.4 28 10.6 6.6 2.2 23.5 7.3 37.5 11.4 14 4 35.4 9.6 47.5 12.4 12.1 2.7 30.5 6.6 41 8.6 10.4 2 25.7 4.9 34 6.5 8.2 1.7 23.5 4.3 34 5.9 10.4 1.6 29.1 4.3 41.5 6 12.4 1.7 41.2 5.3 64 8.1 22.8 2.7 53 6.1 67 7.5 14 1.4 36.5 3.4 50 4.5 13.5 1 45.4 3.3 71 4.9 25.6 1.7 55 3.5 65.5 4.1 10.4 0.5 39.5 1.9 64.5 3 25 1.1 55.6 2.5 68 3 12.4 0.5 41.6 1.4 65 2 23.4 0.5 76.7 1.5 118.5 2.1 42.6 0.7 100.6 0.9 132 0.5 30.8-0.4 80.7-1.1 111-1.6 30.2-0.6 71.9-1.5 92.5-2 20.6-0.6 57.5-1.7 82-2.5 24.5-0.9 72.4-2.7 106.5-4 34.1-1.4 75.3-3.2 91.5-4 16.2-0.9 50.2-2.7 75.5-4 25.3-1.4 63.8-3.6 85.5-5 21.7-1.4 70.1-4.8 107.5-7.5 37.4-2.8 85.3-6.4 106.5-8.1 21.2-1.6 58.5-4.8 83-7 24.5-2.2 48.3-4.4 53-4.9 4.7-0.5 33.5-3.4 64-6.5 30.5-3 67.4-6.9 82-8.5 14.6-1.7 33.7-4 42.5-5.1 8.8-1.1 33.6-4.7 55-8 21.4-3.2 46.2-7.1 55-8.5 8.8-1.4 26.1-4.6 38.5-6.9 12.4-2.4 34.2-6.8 48.5-9.9 14.3-3 32.3-6.9 40-8.6 7.7-1.7 27.1-6.5 43-10.6 15.9-4.2 37.6-10 48-13 10.4-2.9 33.8-10.3 52-16.3 18.2-5.9 40.9-13.8 50.5-17.5 9.6-3.7 22.7-8.8 29-11.3 6.3-2.4 23-9.7 37-16 14-6.4 35.4-16.8 47.5-23.1 12.1-6.3 29.4-16 38.5-21.5 9.1-5.5 24.6-15.5 34.5-22.3 9.9-6.8 23.4-16.6 30-21.9 6.6-5.3 16.3-13.4 21.5-18 5.2-4.6 13.1-11.9 17.5-16.3 4.4-4.4 7.6-8.2 7-8.5-0.6-0.4-3.9 1.3-7.5 3.7-3.6 2.3-13 8.1-21 12.8-8 4.7-21.9 12.5-31 17.3-9.1 4.8-23.9 12.3-33 16.5-9.1 4.3-25.1 11.5-35.5 16-10.4 4.5-28.7 11.8-40.5 16.2-11.8 4.4-33.7 12.1-48.5 17-14.8 5-38.5 12.3-52.5 16.3-14 4.1-37.2 10.3-51.5 13.9-14.3 3.6-35.2 8.6-46.5 11.1-11.3 2.6-27 6-35 7.6-8 1.6-25.1 4.9-38 7.4-12.9 2.4-34.5 6.3-48 8.5-13.5 2.2-40 6.3-59 9-19 2.7-50 6.7-69 9-19 2.2-45.3 5.1-58.5 6.5-13.2 1.3-35.5 3.6-49.5 5-14 1.3-47.6 4.5-74.5 7-26.9 2.4-65.4 5.8-85.5 7.5-20.1 1.6-51.3 4.1-69.5 5.5-18.2 1.3-49.7 3.6-70 5-20.3 1.3-54.6 3.6-76 5-21.4 1.3-59.3 3.6-84 5-24.8 1.3-58.1 3.1-74 4-15.9 0.8-40 1.9-53.5 2.5-13.5 0.6-40.9 1.7-61 2.5-20.1 0.8-60.6 2.1-90 3-29.4 0.8-72.2 2-95 2.5-22.8 0.6-92.1 1.4-154 1.7-70.3 0.4-138.5 0.1-182-0.6-38.2-0.6-83-1.6-99.5-2.1-16.5-0.6-46.7-1.7-67-2.5-20.3-0.8-50.3-2.2-66.5-3-16.2-0.9-50-2.9-75-4.5-25-1.7-56.3-4-69.5-5.1-13.2-1.1-38-3.3-55-5-17.1-1.6-38.7-3.9-48-4.9-9.3-1.1-26.2-3.2-37.5-4.6-11.3-1.4-31.3-4.1-44.5-6-13.2-1.9-33.2-5-44.5-6.9-11.3-1.9-29.1-5-39.5-7-10.5-2-26.2-5.2-35-7.1-8.8-2-24.1-5.6-34-8-9.9-2.5-22.7-5.9-28.5-7.6-5.8-1.6-17.3-5.2-25.5-7.8-8.3-2.7-19.7-6.6-25.5-8.8-5.8-2.2-16.8-6.7-24.5-10.1-7.7-3.4-19.2-9.1-25.5-12.7-6.3-3.7-15.8-9.8-21-13.7-5.2-3.9-12.4-10-15.9-13.6-3.5-3.6-8.3-9.5-10.6-13.1-2.4-3.6-5.6-9.7-7.1-13.5-2-5.4-2.8-9.3-3.1-17-0.4-7.1 0-12 1.1-17 0.9-3.8 3.9-11.5 6.6-17 2.7-5.5 7.9-14 11.7-19 3.7-4.9 12.2-14.4 18.8-21 6.6-6.7 12.9-12.6 14-13.3 1.5-0.9-10.4-1.2-51.3-1.4-51.3-0.3-53.5-0.2-56.5 1.6z"/>
	</g>
</svg>